<svg width="391" height="391" viewBox="0 0 391 391" fill="none" xmlns="http://www.w3.org/2000/svg">
<path d="M391 0H0V391H391V0Z" fill="white"/>
<path d="M251.225 262.295C268.71 264.427 283.711 275.21 296.057 276.687C309.778 278.328 330.528 269.314 351.689 279.924C357.135 282.655 361.607 285.937 359.941 290.016C357.037 297.124 350.926 299.909 337.54 301.841L336.112 302.038C325.763 303.414 314.641 303.748 286.446 303.934L276.812 304.007C242.442 304.306 222.566 305.915 196.828 307.971L194.204 308.184C146.807 312.084 108.974 311.459 80.7047 307.136L79.8508 307.004C57.0112 303.426 43.2795 297.509 36.5764 290.795C32.6304 286.842 30.3573 283.157 30.24 279.218C30.1227 275.279 35.9427 270.948 39.2562 269.314C48.4866 264.759 51.4984 263.108 69.2437 260.776C76.8839 259.772 88.3308 259.852 101.562 259.405C149.028 257.803 222.356 258.775 251.225 262.295Z" fill="white"/>
<path fill-rule="evenodd" clip-rule="evenodd" d="M265.092 270.885C238.184 331.788 140.81 329.826 73.0558 288.258C60.1163 280.319 15.6367 242.902 59.4151 221.052C103.193 199.203 89.1707 165.642 124.502 125.614C165.36 79.3219 241.448 55.5799 294.96 117.863C430.97 276.164 274.152 250.377 265.092 270.885Z" fill="#64FCD9"/>
<path fill-rule="evenodd" clip-rule="evenodd" d="M85.2165 109.39C82.7907 105.492 80.3598 103.996 77.9684 105.29C75.9441 106.385 75.6073 109.311 76.6844 113.99L76.039 114.338C75.1522 114.817 74.8206 115.924 75.2992 116.81C75.3404 116.887 75.3873 116.961 75.4389 117.031L75.7851 117.494C80.8347 124.193 84.8365 126.936 87.9582 125.428C90.5826 124.159 91.0257 118.758 89.6755 108.984C89.5811 108.299 88.9712 107.813 88.2913 107.862L88.2064 107.871C88.052 107.892 87.9029 107.941 87.7658 108.015L85.2165 109.39ZM78.056 112.941L83.6864 109.895L83.6728 109.875C81.7371 106.872 80.0965 105.917 78.7129 106.665L78.6493 106.702C77.6269 107.326 77.3439 109.286 77.995 112.635L78.056 112.941ZM88.1766 109.57L76.7813 115.715C76.6547 115.783 76.6072 115.941 76.6755 116.068C76.6818 116.079 76.688 116.089 76.6958 116.099L77.0311 116.549C81.6469 122.671 85.1185 125.063 87.2779 124.019C88.9185 123.227 89.3491 118.411 88.2074 109.797L88.1766 109.57ZM85.8484 119.422C86.1163 119.142 86.2811 118.761 86.2811 118.343C86.2811 117.479 85.5809 116.779 84.7171 116.779C83.8532 116.779 83.1531 117.479 83.1531 118.343C83.1531 119.207 83.8532 119.907 84.7171 119.907C84.7849 119.907 84.8521 119.902 84.9178 119.894L85.8067 121.526L85.839 121.578C85.9896 121.791 86.279 121.862 86.5141 121.734C86.767 121.596 86.8603 121.28 86.7226 121.027L85.8484 119.422Z" fill="#FFB61D"/>
<path fill-rule="evenodd" clip-rule="evenodd" d="M251.225 262.295C268.71 264.427 283.711 275.21 296.057 276.687C309.778 278.328 330.528 269.314 351.689 279.924C357.135 282.655 361.607 285.937 359.941 290.016C357.037 297.124 350.926 299.909 337.54 301.841L336.112 302.038C325.763 303.414 314.641 303.748 286.446 303.934L276.812 304.007C242.442 304.306 222.566 305.915 196.828 307.971L194.204 308.184C146.807 312.084 108.974 311.459 80.7047 307.136L79.8508 307.004C57.0112 303.426 43.2795 297.509 36.5764 290.795C32.6304 286.842 30.3573 283.157 30.24 279.218C30.1227 275.279 35.9427 270.948 39.2562 269.314C48.4866 264.759 51.4984 263.108 69.2437 260.776C76.8839 259.772 88.3308 259.852 101.562 259.405C149.028 257.803 222.356 258.775 251.225 262.295ZM68.8517 264.075L67.6891 264.23C51.1523 266.472 40.5812 270.552 35.5735 274.62L35.261 274.881C31.4158 278.194 31.0563 281.919 36.5835 287.426C42.6269 293.448 58.0408 300.24 80.2658 303.703C108.09 308.038 145.498 309.297 192.475 305.527L197.4 305.13C224.522 302.998 245.331 301.863 283.843 301.592L294.474 301.513C317.402 301.306 327.147 300.895 336.555 299.588L337.449 299.459C378.992 291.333 349.017 276.753 331.819 276.687C317.09 276.63 299.4 280.773 294.474 279.223C278.946 274.335 270.974 266.852 251.225 264.457L245.483 263.769L240.58 263.538C160.237 259.805 102.979 259.615 68.8517 264.075Z" fill="#00160A"/>
<path d="M120.886 75.2691C120.601 75.2597 120.315 75.2602 120.03 75.2701C113 75.512 107.481 81.3504 107.608 88.3623L107.614 88.575L107.7 91.2026C107.947 99.094 108.083 106.954 108.107 114.784L108.15 138.873C108.16 147.543 108.154 155.368 108.129 163.031L108.094 171.157C107.957 197.03 107.589 215.188 106.905 223.092L106.773 224.57C105.947 234.229 105.776 248.104 106.266 266.16C106.271 266.369 106.282 266.578 106.297 266.786C106.838 274.107 113.153 279.621 120.458 279.2L120.679 279.185L123.107 279.009C145.799 277.389 168.491 276.58 191.183 276.58C213.394 276.58 235.775 277.356 258.327 278.907C258.979 278.952 259.634 278.956 260.287 278.919C268.837 278.435 275.396 271.18 275.052 262.652L275.04 262.393L274.869 259.317C273.355 231.611 272.571 203.905 272.518 176.199L272.515 173.121C272.515 152.927 273.46 125.232 275.351 90.0238C275.372 89.6292 275.376 89.234 275.364 88.8394C275.126 81.1966 268.8 75.1768 261.182 75.2899L260.951 75.2956L249.422 75.6449C223.227 76.4175 204.154 76.8216 192.189 76.856L190.138 76.8586L188.028 76.8529C175.815 76.8002 156.907 76.3816 131.294 75.5964L120.886 75.2691Z" fill="white"/>
<path fill-rule="evenodd" clip-rule="evenodd" d="M260.058 74.5507C259.134 75.0564 257.917 75.4124 256.406 75.6178C260.295 75.9635 263.352 75.8827 265.578 75.3764L265.096 75.317C263.529 75.1189 261.849 74.8635 260.058 74.5507Z" fill="#E7EAEE"/>
<path fill-rule="evenodd" clip-rule="evenodd" d="M113.807 260.989L113.915 260.993C114.587 261.039 115.061 261.564 114.999 262.144C114.929 262.807 114.22 263.45 113.446 263.503C112.831 263.546 112.404 263.073 112.472 262.338C112.544 261.568 113.147 260.992 113.807 260.989Z" fill="#E7EAEE"/>
<path fill-rule="evenodd" clip-rule="evenodd" d="M126.116 271.058L126.224 271.062C126.896 271.109 127.37 271.634 127.308 272.213C127.238 272.876 126.529 273.52 125.755 273.573C125.14 273.615 124.713 273.142 124.782 272.407C124.853 271.637 125.457 271.061 126.116 271.058Z" fill="#E7EAEE"/>
<path fill-rule="evenodd" clip-rule="evenodd" d="M191.316 270.397C164.618 276.289 214.747 275.248 234.303 273.957C244.946 273.255 253.444 278.571 258.324 278.906C258.977 278.952 259.631 278.955 260.284 278.918C268.834 278.435 275.394 271.18 275.05 262.652L275.037 262.393L274.866 259.317C273.353 231.611 272.569 203.905 272.515 176.199L272.512 173.121C272.512 152.927 273.457 125.232 275.348 90.0233C275.369 89.6292 275.374 89.234 275.361 88.8394C275.124 81.1961 260.478 255.132 191.316 270.397Z" fill="#E7EAEE"/>
<path d="M270.503 263.274L270.598 263.278C271.084 263.317 271.482 263.824 271.425 264.442C271.361 265.127 270.771 265.743 270.181 265.789C269.767 265.822 269.417 265.377 269.479 264.612C269.542 263.829 270.032 263.286 270.503 263.274Z" fill="white"/>
<path fill-rule="evenodd" clip-rule="evenodd" d="M270.334 267.741C268.597 267.878 267.375 266.325 267.526 264.454C267.673 262.636 269.057 261.193 270.721 261.324C272.356 261.453 273.529 262.945 273.373 264.623C273.223 266.234 271.897 267.618 270.334 267.741ZM270.596 263.278L270.502 263.274C270.032 263.286 269.541 263.829 269.478 264.612C269.416 265.377 269.766 265.822 270.18 265.789C270.77 265.742 271.36 265.127 271.424 264.442C271.481 263.823 271.083 263.317 270.596 263.278Z" fill="white"/>
<path d="M253.966 86.5528C260.145 86.5528 265.154 91.5623 265.154 97.7411C265.154 97.9721 265.147 98.2036 265.132 98.4345L264.968 101.175C264.668 106.377 264.368 112.553 264.069 119.704L264.023 120.849C263.292 140.084 263.269 185.591 263.953 257.369C264.012 263.548 259.051 268.604 252.873 268.663C252.722 268.664 252.572 268.663 252.421 268.658L129.677 264.871C123.994 264.696 119.345 260.286 118.873 254.619L118.769 253.34C117.152 232.964 117.056 206.947 118.48 175.288L118.689 170.748C119.416 154.088 119.473 129.824 118.86 97.9564C118.742 91.8428 123.551 86.7806 129.638 86.5606L129.938 86.5533L253.966 86.5528Z" fill="white"/>
<path fill-rule="evenodd" clip-rule="evenodd" d="M171.441 218.492C176.864 218.72 182.433 217.758 187.262 215.399C193.31 212.443 197.861 207.485 200.38 200.376C203.698 191.012 202.48 180.886 197.709 171.975C193.464 164.043 186.789 158.006 180.636 156.514C180.636 156.514 197.709 180.53 195.264 193.66C191.524 213.734 171.441 218.492 171.441 218.492Z" fill="#E7EAEE"/>
<path fill-rule="evenodd" clip-rule="evenodd" d="M175.385 190.287C178.024 191.381 178.83 193.415 177.802 196.389L177.743 196.555C171.06 214.905 163.18 215.072 169.923 196.555C170.74 194.312 170.538 192.591 169.315 191.392C171.475 190.954 173.498 190.585 175.385 190.287Z" fill="#E7EAEE"/>
<path fill-rule="evenodd" clip-rule="evenodd" d="M133.53 168.837C135.259 163.7 137.783 159.838 142.502 156.785L143.102 156.405C144.12 155.766 145.375 155.042 146.396 155.536C147.693 156.164 149.571 158.454 148.428 159.352C147.653 159.961 144.464 160.609 142.06 162.715C139.221 165.202 137.179 169.209 137.179 170.19C137.179 173.391 132.509 171.872 133.53 168.837Z" fill="#E7EAEE"/>
<path fill-rule="evenodd" clip-rule="evenodd" d="M128.181 95.6136C122.245 111.911 122.286 115.145 121.93 112.336C120.778 103.251 119.909 97.2808 121.278 93.6544C123.011 89.063 127.354 88.1601 128.473 88.6929C130.838 89.8195 128.181 95.6136 128.181 95.6136Z" fill="#E7EAEE"/>
<path fill-rule="evenodd" clip-rule="evenodd" d="M225.839 179.374L223.864 179.313C221.521 179.254 219.832 179.268 218.415 179.378C217.278 179.467 216.429 179.623 215.948 179.774L215.853 179.806L215.843 179.851C215.79 180.117 215.752 180.473 215.735 180.903L215.731 181.067C215.699 182.358 215.855 184.081 216.164 186.006C216.419 187.585 216.765 189.224 217.128 190.606L217.219 190.946C217.359 191.462 217.494 191.91 217.613 192.259L217.656 192.384L217.708 192.403C218.435 192.662 219.881 192.693 222.671 192.487L224.565 192.339C225.841 192.245 226.771 192.205 227.689 192.216L236.592 192.403C237.837 192.426 238.962 192.444 240.065 192.459L242.065 192.481C247.059 192.772 252.548 192.554 253.231 191.311C255.313 187.519 256.296 179.71 255.313 179.658C253.547 179.564 251.408 179.453 250.392 179.467L248.046 179.509L245.919 179.526C244.948 179.532 243.935 179.535 242.847 179.536L230.646 179.508C229.853 179.502 229.076 179.483 227.676 179.437L225.839 179.374Z" fill="#E7EAEE"/>
<path fill-rule="evenodd" clip-rule="evenodd" d="M132.286 72.8282L120.976 72.4737C120.629 72.4622 120.281 72.4627 119.934 72.4747C111.289 72.7719 104.521 80.0215 104.818 88.6668L104.904 91.2896C105.005 94.5287 105.16 97.7625 105.313 100.991C105.575 106.473 105.836 111.94 105.836 117.392L105.872 137.164C105.907 164.738 105.823 210.15 104.599 223.303L104.506 224.335C103.71 233.655 102.995 246.767 103.404 263.672L103.47 266.236C103.476 266.488 103.489 266.74 103.508 266.992C104.168 275.927 111.946 282.635 120.882 281.975L123.306 281.799L123.708 281.77C123.789 281.905 123.87 282.041 123.952 282.174C124.344 282.823 124.711 283.428 124.796 283.726C125.012 284.475 125.034 285.324 124.91 287.245L124.784 289.046L124.75 289.631C124.566 293.221 124.981 295.356 126.732 296.964C128.985 299.033 131.37 298.813 136.259 298.364L136.479 298.343L137.737 298.221C139.192 298.081 140.827 298.195 141.942 298.272H141.942C142.264 298.294 142.541 298.314 142.759 298.323L143.17 298.343C145.975 298.455 146.421 297.532 146.666 295.25C146.802 293.992 146.626 293.002 145.886 290.449L145.334 288.567L145.15 287.913C144.287 284.723 144.366 283.13 145.49 282.36C145.763 282.173 146.903 281.834 148.217 281.443C149.569 281.041 151.107 280.584 152.075 280.181C165.111 279.645 178.147 279.377 191.183 279.377C204.88 279.377 218.642 279.673 232.47 280.265C232.378 280.414 232.361 280.63 232.459 280.931C232.568 281.271 232.984 281.506 233.516 281.807C234.926 282.604 237.147 283.86 236.631 288.739L236.633 288.94C236.71 292.785 239.042 295.041 242.792 295.807C245.299 296.319 248.152 296.165 251.258 295.626C252.796 295.359 253.787 294.397 254.259 292.932C254.521 292.122 254.614 291.395 254.676 289.948C254.676 289.948 253.992 282.426 257.795 281.674C257.908 281.682 258.021 281.689 258.135 281.697C258.575 281.727 259.017 281.742 259.458 281.74C259.517 281.755 259.577 281.77 259.638 281.786C259.82 281.835 259.994 281.807 260.151 281.725C260.249 281.722 260.347 281.716 260.445 281.711C270.624 281.135 278.408 272.416 277.832 262.238L277.662 259.165C276.094 230.484 275.311 201.802 275.311 173.121C275.311 153.589 276.2 126.988 277.976 93.3176L278.143 90.1735C278.169 89.7001 278.174 89.2262 278.16 88.7523C277.872 79.4882 270.128 72.212 260.864 72.4997L254.992 72.6801C225.897 73.5622 204.961 74.022 192.185 74.0591L190.14 74.0611C178.213 74.0523 158.927 73.6409 132.286 72.8282ZM253.977 281.42C247.512 281.002 241.061 280.649 234.625 280.359C237.707 281.855 238.806 284.648 238.867 288.512L238.868 288.739C238.868 291.239 240.813 292.87 243.428 293.404C243.702 293.46 243.983 293.521 244.27 293.584C246.077 293.975 248.142 294.423 250.432 294.048L250.78 293.989C252.364 293.404 252.364 287.713 252.364 287.713C252.382 287.25 252.398 286.948 252.425 286.581L252.459 286.168C252.657 284.096 253.09 282.549 253.977 281.42ZM127.485 282.954C127.333 282.424 127.116 281.956 126.836 281.553C132.324 281.182 137.812 280.858 143.3 280.582C142.442 281.537 142.362 282.828 142.33 284.37C142.303 285.698 142.572 287.111 143.136 289.101L143.17 289.22L143.687 290.979C144.32 293.151 144.509 294.06 144.456 294.821L144.445 294.951C144.369 295.657 143.462 296.454 141.928 296.365L141.654 296.351C140.997 296.251 134.521 296.365 134.521 296.365C131.531 296.668 130.091 296.251 128.624 294.904C127.639 294 127.375 292.394 127.569 289.32L127.69 287.595C127.842 285.339 127.829 284.283 127.545 283.176L127.485 282.954ZM120.03 75.2701C120.315 75.2602 120.601 75.2597 120.886 75.2691L131.293 75.5965C156.906 76.3816 175.814 76.8002 188.028 76.8529L190.138 76.8581L192.189 76.856C204.154 76.8211 223.227 76.4176 249.422 75.6449L260.951 75.2957L261.182 75.2899C268.799 75.1768 275.126 81.1961 275.364 88.8394C275.376 89.234 275.372 89.6292 275.351 90.0233C273.46 125.232 272.515 152.927 272.515 173.121L272.517 176.199C272.571 203.905 273.355 231.611 274.869 259.317L275.04 262.393L275.052 262.652C275.396 271.18 268.837 278.435 260.287 278.919C259.633 278.956 258.979 278.951 258.327 278.907C235.775 277.356 213.394 276.58 191.183 276.58C168.49 276.58 145.799 277.389 123.107 279.009L120.679 279.185L120.458 279.2C113.153 279.621 106.838 274.107 106.297 266.786C106.282 266.577 106.271 266.369 106.265 266.16C105.776 248.104 105.947 234.229 106.772 224.57L106.905 223.092C107.589 215.188 107.957 197.03 108.094 171.157L108.129 163.031C108.154 155.368 108.159 147.543 108.15 138.873L108.107 114.784C108.082 106.954 107.947 99.094 107.7 91.2021L107.614 88.5751L107.608 88.3623C107.481 81.3504 112.999 75.5115 120.03 75.2701ZM265.156 97.7411C265.156 91.5618 260.147 86.5528 253.968 86.5528L129.941 86.5533L129.64 86.5601C123.553 86.7801 118.745 91.8428 118.862 97.9559C119.476 129.823 119.418 154.087 118.691 170.748L118.482 175.287C117.058 206.946 117.155 232.964 118.771 253.34L118.875 254.619C119.348 260.286 123.996 264.696 129.679 264.871L252.423 268.658C252.574 268.663 252.725 268.664 252.875 268.663C259.054 268.604 264.015 263.548 263.956 257.369C263.271 185.591 263.294 140.084 264.025 120.849L264.071 119.704C264.37 112.553 264.67 106.377 264.97 101.175L265.135 98.434C265.149 98.2036 265.156 97.9721 265.156 97.7411ZM130.048 89.3498H253.968C258.602 89.3498 262.359 93.1065 262.359 97.7411C262.359 97.9142 262.354 98.0878 262.343 98.2609C262.05 102.979 261.758 108.611 261.467 115.159L261.276 119.587C260.537 137.258 260.465 179.575 261.06 246.606L261.159 257.395C261.203 262.029 257.482 265.822 252.848 265.866C252.736 265.867 252.623 265.866 252.509 265.862L129.766 262.076L129.581 262.068C125.403 261.848 122.012 258.575 121.663 254.387C119.94 233.747 119.825 207.083 121.322 174.412L121.462 171.388C122.168 155.668 122.269 133.124 121.765 103.739L121.659 97.9022C121.57 93.2691 125.253 89.4405 129.887 89.3513C129.941 89.3503 129.994 89.3498 130.048 89.3498ZM125.761 80.7717C125.938 82.6736 124.56 84.1995 122.703 84.0718C121.006 83.9545 119.512 82.599 119.338 80.9662L119.327 80.8468C119.22 79.2223 120.464 77.8413 122.134 77.6641L122.26 77.6531C124.04 77.5306 125.591 78.9382 125.761 80.7717ZM122.477 79.6039L122.369 79.6081C121.697 79.6545 121.223 80.1795 121.285 80.7587C121.355 81.4218 122.064 82.0652 122.838 82.1183C123.453 82.1606 123.88 81.6877 123.811 80.9532C123.74 80.1826 123.136 79.6066 122.477 79.6039ZM112.578 95.6026C110.643 95.7741 109.338 93.9119 109.499 91.6791C109.657 89.49 111.16 87.731 113.021 87.8958L113.142 87.9093C114.851 88.1314 116.032 89.8132 115.936 91.6984L115.927 91.8303C115.767 93.7571 114.322 95.4478 112.578 95.6026ZM112.878 89.8482L112.783 89.844C112.189 89.8508 111.536 90.6531 111.452 91.8198C111.368 92.985 111.869 93.6998 112.405 93.6523C113.132 93.5877 113.89 92.7014 113.975 91.6686C114.056 90.6906 113.506 89.9045 112.878 89.8482ZM257.508 80.7717C257.331 82.6736 258.709 84.1995 260.566 84.0718C262.264 83.9545 263.757 82.599 263.931 80.9662L263.942 80.8468C264.05 79.2223 262.805 77.8413 261.135 77.6641L261.009 77.6531C259.229 77.5306 257.678 78.9382 257.508 80.7717ZM260.792 79.6039L260.9 79.6081C261.572 79.6545 262.046 80.1795 261.985 80.7587C261.914 81.4218 261.205 82.0652 260.432 82.1183C259.816 82.1606 259.389 81.6877 259.458 80.9532C259.529 80.1826 260.133 79.6066 260.792 79.6039ZM267.933 92.4022C266.894 90.8585 267.527 88.9019 269.262 88.1043C270.935 87.3348 272.929 87.974 273.713 89.5771L273.767 89.6917C274.448 91.2266 273.875 92.9949 272.414 93.7133L272.305 93.7644C270.804 94.4296 268.883 93.8145 267.933 92.4022ZM271.966 90.4602L271.916 90.3643C271.583 89.7944 270.783 89.5599 270.08 89.8831C269.409 90.1912 269.213 90.798 269.558 91.3094C269.99 91.9528 270.902 92.2447 271.511 91.9741C272.044 91.7385 272.262 91.0655 271.966 90.4602ZM111.196 259.974C109.838 261.317 109.913 263.371 111.417 264.467C112.793 265.469 114.809 265.39 115.991 264.251L116.076 264.166C117.203 262.991 117.137 261.134 115.972 259.925L115.882 259.835C114.597 258.597 112.505 258.678 111.196 259.974ZM114.462 261.19L114.543 261.263C115.028 261.73 115.053 262.437 114.633 262.841C114.153 263.304 113.197 263.341 112.569 262.884C112.072 262.522 112.048 261.884 112.573 261.365C113.123 260.821 113.955 260.768 114.462 261.19ZM123.724 274.536C122.219 273.44 122.145 271.386 123.502 270.043C124.812 268.747 126.904 268.666 128.189 269.904L128.279 269.994C129.444 271.203 129.51 273.061 128.383 274.236L128.298 274.32C127.115 275.459 125.1 275.538 123.724 274.536ZM126.849 271.332L126.769 271.259C126.262 270.837 125.429 270.891 124.88 271.435C124.355 271.954 124.378 272.591 124.877 272.953C125.503 273.41 126.46 273.373 126.94 272.91C127.36 272.506 127.334 271.799 126.849 271.332ZM261.457 270.693C259.898 272.265 259.857 274.577 261.517 275.767C263.038 276.856 265.314 276.641 266.677 275.3C268.088 273.911 268.129 271.675 266.74 270.314C265.334 268.939 262.976 269.161 261.457 270.693ZM265.308 271.657L265.388 271.731C265.964 272.295 265.946 273.272 265.303 273.905C264.61 274.586 263.392 274.701 262.657 274.174C262.061 273.748 262.078 272.848 262.847 272.071C263.628 271.284 264.715 271.156 265.308 271.657ZM270.337 267.741C268.599 267.878 267.378 266.324 267.529 264.454C267.676 262.636 269.06 261.193 270.723 261.324C272.359 261.453 273.532 262.945 273.376 264.623C273.226 266.234 271.899 267.618 270.337 267.741ZM270.599 263.277L270.505 263.274C270.034 263.286 269.544 263.829 269.48 264.612C269.419 265.376 269.769 265.822 270.183 265.789C270.772 265.742 271.363 265.127 271.426 264.442C271.484 263.823 271.086 263.317 270.599 263.277Z" fill="#00160A"/>
<path fill-rule="evenodd" clip-rule="evenodd" d="M123.502 270.043C122.144 271.386 122.219 273.441 123.723 274.536C125.098 275.538 127.114 275.459 128.297 274.321L128.382 274.236C129.508 273.061 129.443 271.203 128.278 269.994L128.188 269.905C126.903 268.666 124.811 268.748 123.502 270.043ZM126.768 271.259L126.849 271.332C127.333 271.8 127.359 272.506 126.939 272.91C126.459 273.373 125.502 273.41 124.875 272.953C124.377 272.591 124.354 271.954 124.878 271.435C125.428 270.891 126.261 270.837 126.768 271.259Z" fill="#00160A"/>
<path d="M265.307 271.657L265.387 271.731C265.963 272.295 265.945 273.272 265.302 273.905C264.609 274.587 263.392 274.701 262.656 274.175C262.061 273.748 262.077 272.848 262.846 272.071C263.628 271.284 264.714 271.157 265.307 271.657Z" fill="white"/>
<path fill-rule="evenodd" clip-rule="evenodd" d="M141.848 151.6C141.202 151.825 140.62 152.129 139.9 152.572L139.347 152.919L139.073 153.093C134.902 155.786 132.117 159.134 130.135 163.669L130.029 163.915L129.95 163.891C129.424 163.736 128.947 163.661 128.438 163.703C127.351 163.794 126.338 164.444 125.977 165.658C125.412 167.553 125.645 169.72 126.378 171.939L126.516 172.345C127.232 174.402 128.024 175.798 129.341 176.205C131.091 176.747 137.14 174.35 139.249 172.173C140.753 170.621 140.151 168.724 138.719 167.628L138.587 167.531L138.449 167.435L138.292 167.333L138.397 167.146C138.47 167.017 138.547 166.886 138.627 166.754C139.482 165.335 140.551 163.994 141.635 163.045C142.052 162.679 142.534 162.345 143.084 162.032C143.935 161.548 147.33 160.216 147.901 159.767C149.736 158.323 149.523 156.233 148.363 154.421C147.641 153.294 146.507 152.238 145.41 151.707C144.257 151.149 143.052 151.183 141.848 151.6ZM144.312 153.972C145.609 154.6 147.487 156.89 146.344 157.788C145.57 158.397 142.38 159.045 139.976 161.151C137.138 163.638 135.095 167.645 135.095 168.626L135.419 168.748C137.189 169.429 137.863 169.987 137.442 170.421C135.564 172.358 130.462 173.917 130.085 173.801C129.713 173.685 127.512 169.319 128.389 166.377C128.506 165.984 129.525 166.282 131.446 167.274C133.175 162.136 135.7 158.274 140.419 155.221L141.018 154.841C142.037 154.202 143.291 153.478 144.312 153.972Z" fill="#00160A"/>
<path fill-rule="evenodd" clip-rule="evenodd" d="M145.665 209.528C135.303 198.204 134.703 178.886 145.898 166.446C152.852 158.717 169.199 153.739 180.638 156.514C186.791 158.006 193.466 164.043 197.711 171.975C202.481 180.887 203.7 191.012 200.382 200.376C197.863 207.485 193.312 212.444 187.264 215.399C182.434 217.758 176.866 218.72 171.443 218.492C161.657 218.08 149.489 213.707 145.665 209.528ZM195.245 173.295C191.346 166.01 185.271 160.516 179.978 159.232L179.664 159.158C169.23 156.792 154.178 161.425 147.977 168.317C137.768 179.661 138.317 197.355 147.729 207.64C150.977 211.19 162.452 215.314 171.56 215.698C176.547 215.907 181.659 215.024 186.035 212.886C191.438 210.246 195.476 205.847 197.745 199.442C200.784 190.866 199.662 181.548 195.245 173.295ZM189.857 200.093C196.047 189.228 187.656 165.766 175.937 163.808C164.921 161.967 160.745 164.639 155.994 168.759L155.075 169.565C145.777 177.786 145.777 195.446 154.861 203.639C157.144 205.698 167.187 210.98 174.894 209.364C180.005 208.292 187.116 204.905 189.857 200.093ZM163.992 166.873C164.576 166.664 165.191 166.491 165.846 166.357C165.758 166.56 165.682 166.777 165.62 167.005C165.273 168.282 165.309 169.375 165.683 172.035L165.939 173.797C165.961 173.953 165.981 174.096 166 174.242L166.056 174.69C166.455 178.057 166.093 179.814 164.588 180.783C163.21 181.67 161.854 182.004 158.759 182.364L157.6 182.495C156.172 182.66 155.422 182.774 154.52 182.978L154.112 183.06C152.862 183.323 151.824 183.649 151.019 184.06C151.55 179.25 153.52 174.673 156.928 171.66C160.143 168.818 161.765 167.671 163.992 166.873ZM175.476 166.567C175.023 166.49 174.583 166.423 174.154 166.363C174.244 166.591 174.32 166.832 174.383 167.088C174.645 168.155 174.69 169.102 174.626 171.26L174.596 172.191C174.563 173.086 174.547 173.62 174.543 174.132L174.542 174.746C174.569 177.475 174.997 179.29 176.047 180.519L176.163 180.65L176.21 180.67C176.275 180.696 176.357 180.725 176.455 180.758L176.558 180.792C176.799 180.869 177.101 180.954 177.486 181.055L178.132 181.22L180.889 181.895C181.43 182.03 181.912 182.153 182.373 182.274L183.132 182.479C185.411 183.106 187.158 183.718 188.429 184.401C186.531 175.904 181.306 167.54 175.476 166.567ZM188.734 190.65C188.891 190.549 189.04 190.447 189.181 190.344C189.249 193.513 188.718 196.444 187.427 198.709C185.573 201.962 180.426 205.061 175.4 206.372C175.527 206.051 175.63 205.703 175.709 205.33C175.954 204.183 175.993 202.869 175.897 201.008L175.836 200.006L175.745 198.69C175.573 196.058 175.614 194.957 175.844 194.694C176.875 193.508 178.305 193.054 181.943 192.532L182.787 192.412C185.828 191.967 187.255 191.592 188.734 190.65ZM167.355 205.01C167.393 205.481 167.551 205.963 167.805 206.418C166.515 206.146 165.173 205.754 163.805 205.253C160.746 204.133 157.78 202.505 156.735 201.562C153.417 198.57 151.507 194.053 151.006 189.297C151.865 189.693 153.002 190.028 154.413 190.362L154.63 190.413C155.199 190.545 155.782 190.668 156.469 190.803L158.434 191.185C162.831 192.088 165.102 193.136 166.139 194.535L166.243 194.68C166.931 195.682 167.12 196.817 167.176 199.762L167.207 201.86C167.231 203.116 167.27 203.949 167.355 205.01ZM170.663 166.475L170.789 166.487C171.977 166.629 172.228 167.729 172.088 171.882L172.04 173.322C172.029 173.756 172.024 174.106 172.024 174.489C172.026 177.092 172.337 179.115 173.175 180.735C173.018 180.652 172.84 180.605 172.651 180.605L172.46 180.608L172.413 180.609L172.391 180.6C172.07 180.481 171.719 180.518 171.435 180.685L171.406 180.704L171.308 180.719C168.868 181.126 166.443 182.583 165.143 184.513C163.749 186.584 163.818 188.845 165.409 190.78C163.895 189.981 161.886 189.341 159.235 188.781L158.38 188.609C157.877 188.511 157.249 188.391 157.248 188.391L156.743 188.291C156.254 188.194 155.821 188.102 155.406 188.008L155.199 187.96C153.937 187.667 152.94 187.367 152.243 187.053L152.132 187.001C151.918 186.9 151.747 186.802 151.626 186.714L151.61 186.701L151.641 186.67C151.727 186.584 151.858 186.487 152.036 186.384C152.647 186.031 153.654 185.708 155.036 185.441L155.385 185.366C156 185.239 156.602 185.149 157.542 185.037L159.068 184.863C162.539 184.459 164.147 184.06 165.95 182.899C168.579 181.208 169.08 178.562 168.526 174.15L168.465 173.684C168.434 173.455 168.4 173.218 168.355 172.914L168.182 171.721C167.87 169.505 167.826 168.553 168.03 167.739L168.049 167.666C168.299 166.747 168.935 166.367 170.663 166.475ZM168.063 192.906C168.096 192.949 168.129 192.992 168.161 193.035C169.35 194.639 169.623 196.055 169.692 199.672L169.72 201.583C169.741 202.779 169.772 203.567 169.839 204.479L169.865 204.807C169.917 205.454 171.02 206.481 172.239 206.249C173.189 206.067 173.557 204.512 173.378 201.049L173.353 200.616L173.214 198.584C172.995 195.257 173.064 194.151 173.824 193.187C172.003 193.873 169.886 193.84 168.063 192.906ZM176.76 191.086C177.889 190.659 179.326 190.371 181.321 190.078L182.404 189.923C184.931 189.554 186.154 189.252 187.189 188.644L187.381 188.527C188.553 187.78 188.665 187.632 188.144 187.211L187.976 187.08C187.054 186.387 185.275 185.694 182.713 184.975L182.172 184.826C181.587 184.668 180.987 184.513 180.279 184.338L177.335 183.616C176.779 183.476 176.334 183.359 175.973 183.252C178.248 185.658 178.624 188.366 177.06 190.679L176.972 190.806C176.904 190.902 176.833 190.995 176.76 191.086ZM171.756 182.913L171.916 182.891L172.028 182.958C175.687 185.183 176.502 187.607 175.149 189.509C173.803 191.401 170.846 192.055 168.725 190.711C166.266 189.152 165.858 187.458 166.999 185.764C167.963 184.333 169.89 183.2 171.756 182.913Z" fill="#00160A"/>
<path d="M208.647 176.829C208.75 176.451 208.851 176.344 208.851 176.341C209.207 176.083 209.951 175.82 211.185 175.646C212.38 175.476 213.84 175.413 215.448 175.41C217.05 175.407 218.754 175.463 220.432 175.52C220.53 175.524 220.629 175.527 220.727 175.531C222.292 175.585 223.832 175.639 225.195 175.64C226.801 175.642 228.433 175.648 230.077 175.653C234.096 175.667 238.186 175.681 242.141 175.64C242.314 175.638 242.563 175.633 242.874 175.627C244.136 175.6 246.416 175.552 248.742 175.627C250.189 175.674 251.609 175.767 252.774 175.935C253.356 176.02 253.845 176.119 254.228 176.23C254.634 176.348 254.817 176.452 254.867 176.49C254.956 176.557 255.14 176.765 255.338 177.255C255.528 177.726 255.687 178.352 255.797 179.11C256.017 180.624 256.019 182.503 255.802 184.353C255.585 186.212 255.158 187.945 254.578 189.199C253.95 190.557 253.373 190.889 253.099 190.92C246.139 191.676 234.379 191.418 225.015 191.213C223.965 191.19 222.945 191.167 221.966 191.147C220.791 191.123 219.562 191.202 218.383 191.293C218.098 191.315 217.816 191.338 217.538 191.361C216.646 191.433 215.793 191.502 214.968 191.537C213.889 191.582 212.95 191.563 212.166 191.433C211.477 191.317 210.987 191.127 210.646 190.885C210.608 190.802 210.558 190.68 210.497 190.517C210.347 190.113 210.169 189.543 209.979 188.843C209.599 187.449 209.194 185.622 208.893 183.758C208.592 181.884 208.406 180.03 208.442 178.562C208.46 177.825 208.533 177.244 208.647 176.829ZM210.703 190.997C210.703 190.998 210.699 190.992 210.691 190.976C210.699 190.989 210.703 190.997 210.703 190.997Z" stroke="#421EB7" stroke-width="5.36509"/>
<path fill-rule="evenodd" clip-rule="evenodd" d="M225.163 174.513C226.777 174.514 228.413 174.52 230.06 174.526C233.445 174.537 236.873 174.549 240.231 174.528L242.094 174.513C242.254 174.511 242.491 174.506 242.791 174.5C245.592 174.441 253.861 174.266 255.679 175.646C258.654 177.904 257.47 192.119 253.217 192.58C246.158 193.347 234.296 193.087 224.959 192.882C223.905 192.858 222.883 192.836 221.904 192.816C220.545 192.788 219.081 192.906 217.637 193.024C214.396 193.286 211.249 193.541 209.575 192.119C208.711 191.385 205.384 177.414 207.975 175.495C209.955 174.029 215.633 174.226 220.734 174.404C222 174.448 223.231 174.49 224.361 174.506L224.363 174.505L224.365 174.506C224.637 174.51 224.904 174.512 225.163 174.513ZM221.752 177.237C222.027 177.246 222.279 177.254 222.511 177.261C222.699 178.42 222.72 180.455 222.585 183.454L222.486 185.621C222.397 187.646 222.365 189.024 222.423 190.03L221.765 190.017C220.848 190.005 219.918 190.045 218.641 190.139L216.747 190.287C213.958 190.493 212.511 190.462 211.784 190.204L211.732 190.184L211.689 190.06C211.57 189.711 211.435 189.262 211.295 188.747L211.204 188.407C210.842 187.025 210.495 185.385 210.241 183.806C209.931 181.881 209.775 180.158 209.807 178.867L209.812 178.703C209.829 178.273 209.867 177.917 209.92 177.652L209.929 177.607L210.024 177.575C210.505 177.423 211.355 177.267 212.492 177.179C213.909 177.068 215.597 177.054 217.94 177.114L219.915 177.174L221.752 177.237ZM230.668 190.203L225.261 190.09C225.232 189.773 225.211 189.383 225.203 188.932L225.202 188.835C225.193 188.126 225.207 187.45 225.257 186.261L225.414 182.765C225.509 180.363 225.513 178.62 225.354 177.31L236.924 177.336C237.543 177.336 238.139 177.334 238.716 177.333C238.539 180.812 238.821 186.899 239.182 190.299C238.206 190.297 237.193 190.291 236.141 190.281L234.141 190.259C233.039 190.244 231.913 190.226 230.668 190.203ZM242.024 190.289C246.322 190.253 249.773 190.114 252.448 189.848L252.698 189.822L252.732 189.787C252.874 189.626 253.041 189.366 253.211 189.018L253.276 188.883C253.778 187.797 254.175 186.214 254.38 184.461C254.584 182.727 254.582 180.97 254.38 179.582C254.286 178.941 254.156 178.416 254.008 178.048L253.966 177.949L253.935 177.884L253.823 177.849C253.523 177.761 253.112 177.676 252.61 177.601C251.618 177.453 250.342 177.354 248.849 177.302C247.461 177.253 246.049 177.246 244.469 177.267L242.123 177.31L241.456 177.315C241.435 177.693 241.418 178.143 241.412 178.647L241.411 178.811C241.4 180.174 241.448 181.892 241.545 183.793L241.565 184.176C241.645 185.668 241.752 187.21 241.865 188.565L241.933 189.354C241.964 189.692 241.994 190.006 242.024 190.289ZM229.706 182.034L229.961 182.399C230.252 182.81 230.527 183.173 230.789 183.494C230.438 184.26 230.253 185.121 230.195 186.229C230.174 186.632 230.484 186.975 230.887 186.997C231.289 187.017 231.633 186.708 231.654 186.305C231.688 185.667 231.766 185.14 231.905 184.673C232.714 185.38 233.422 185.643 234.166 185.657H234.309C234.713 185.657 235.04 185.33 235.04 184.926C235.04 184.548 234.753 184.237 234.384 184.2L234.309 184.196H234.187C233.71 184.185 233.23 183.984 232.575 183.324C232.788 183.026 233.045 182.73 233.352 182.415L234.136 181.639C234.423 181.356 234.424 180.893 234.141 180.607C233.856 180.32 233.394 180.318 233.107 180.602L232.451 181.248C232.132 181.567 231.852 181.873 231.608 182.18L231.343 181.82C231.205 181.63 231.062 181.426 230.911 181.207C230.682 180.874 230.227 180.79 229.895 181.018C229.562 181.246 229.478 181.701 229.706 182.034ZM249.655 181.338L249.662 180.892C249.666 180.489 249.342 180.159 248.938 180.156C248.535 180.152 248.205 180.477 248.201 180.88C248.198 181.324 248.186 181.722 248.168 182.077C247.793 181.959 247.39 181.862 246.947 181.776L246.042 181.607C245.646 181.532 245.263 181.792 245.188 182.188C245.113 182.585 245.373 182.967 245.769 183.042L246.853 183.247C247.284 183.337 247.662 183.438 248.005 183.566C247.832 184.48 247.546 184.914 247.157 185.19L247.055 185.259L246.995 185.304C246.711 185.54 246.646 185.959 246.858 186.273C247.084 186.608 247.538 186.696 247.872 186.47L247.991 186.39C248.601 185.962 249.041 185.349 249.316 184.31C249.692 184.619 250.051 185.012 250.436 185.523C250.678 185.845 251.137 185.91 251.459 185.667C251.781 185.424 251.846 184.966 251.603 184.644C250.935 183.757 250.301 183.147 249.58 182.708C249.618 182.296 249.643 181.841 249.655 181.338Z" fill="#00160A"/>
<path fill-rule="evenodd" clip-rule="evenodd" d="M217.781 181.276L217.666 181.707C217.533 182.192 217.399 182.627 217.262 183.018C217.854 183.618 218.323 184.364 218.756 185.385C218.914 185.756 218.74 186.185 218.369 186.343C217.997 186.501 217.568 186.327 217.411 185.956C217.161 185.367 216.908 184.899 216.617 184.508C216.1 185.449 215.524 185.938 214.829 186.206L214.694 186.255C214.315 186.393 213.896 186.197 213.758 185.818C213.628 185.463 213.792 185.072 214.126 184.911L214.195 184.882L214.31 184.84C214.755 184.667 215.137 184.313 215.526 183.469C215.224 183.262 214.881 183.072 214.485 182.881L213.484 182.42C213.117 182.251 212.957 181.818 213.126 181.451C213.295 181.085 213.729 180.925 214.095 181.093L214.933 181.476C215.341 181.666 215.709 181.859 216.044 182.064C216.148 181.723 216.255 181.34 216.366 180.91C216.467 180.52 216.865 180.285 217.256 180.386C217.646 180.487 217.881 180.885 217.781 181.276Z" fill="#64FCD9"/>
</svg>
