<svg width="464" height="464" viewBox="0 0 464 464" fill="none" xmlns="http://www.w3.org/2000/svg">
<path d="M464 0H0V464H464V0Z" fill="white"/>
<path fill-rule="evenodd" clip-rule="evenodd" d="M447.251 193.86C441.905 233.718 435.87 254.772 400.65 296.512C365.43 338.253 204.26 365.712 144.676 365.712C85.0914 365.712 11.6603 319.766 16.2948 266.53C20.9292 213.294 45.1078 169.783 102.98 164.427C162.123 158.953 214.075 184.301 272.139 170.707C322.338 158.953 337.697 114.152 372.176 100.018C441.905 71.4319 450.887 166.745 447.251 193.86Z" fill="#64FCD9"/>
<path d="M411.376 213.326C409.406 216.665 384.468 233.562 369.34 236.062C366.413 236.546 363.217 236.712 360.673 235.184C359.171 234.28 358.052 232.872 356.988 231.479C354.558 228.294 352.238 225.023 350.037 221.675C348.88 219.916 347.733 218.079 347.34 216.011C346.298 210.532 350.715 205.612 355.079 202.141C365.11 194.162 376.856 188.349 389.284 185.214C391.484 184.659 393.817 184.189 395.997 184.819C399.534 185.843 401.649 189.422 402.999 192.848C404.349 196.274 405.401 200.022 408.099 202.529C408.715 203.101 413.345 209.987 411.376 213.326Z" fill="white"/>
<path fill-rule="evenodd" clip-rule="evenodd" d="M277.374 358.891C253.171 363.031 264.707 345.439 268.044 323.422C273.529 287.243 280.292 232.263 280.292 232.263C280.292 232.263 284.703 316.039 284.703 336.438C284.703 356.837 280.291 358.392 277.374 358.891Z" fill="white"/>
<path d="M251.514 338.959C252.132 344.785 252.784 350.734 255.259 356.043C253.909 344.02 252.558 331.996 251.207 319.973C251.041 318.488 251.09 316.598 252.455 315.993C253.612 329.569 255.335 343.098 257.619 356.531C257.89 358.126 255.495 359.037 254.149 358.139C252.804 357.24 252.374 355.491 252.068 353.903C249.838 342.327 248.613 330.559 248.409 318.773C245.571 319.332 243.581 322.083 243.007 324.919C242.432 327.754 242.986 330.682 243.539 333.521C245.318 342.661 247.098 351.801 248.878 360.94C249.711 365.215 250.544 369.632 249.625 373.889C246.092 357.76 243.252 341.48 241.115 325.107C214.009 341.683 179.082 344.765 149.492 333.193C143.029 330.666 136.611 327.317 132.343 321.845C128.98 317.536 127.186 312.185 126.246 306.8C122.907 287.675 129.748 268.167 139.034 251.118C142.557 244.649 146.57 237.911 146.285 230.55C146.188 228.016 145.641 225.21 147.121 223.15C147.33 223.532 137.433 152.731 141.404 137.071C150.962 99.3684 182.014 94.2625 201.896 94.7278C215.235 95.0396 299.791 111.844 312.008 134.695C328.064 164.729 324.655 189.98 321.804 206.629C320.954 211.587 280.305 231.897 280.294 232C277.97 253.604 262.375 300.679 249.295 318.03C250.035 325.006 250.775 331.983 251.514 338.959Z" fill="white"/>
<path fill-rule="evenodd" clip-rule="evenodd" d="M56.3368 251.054C48.7135 248.01 39.6288 248.913 32.7559 253.397C32.0905 253.83 31.134 253.346 30.8046 252.624C30.4751 251.902 30.5984 251.062 30.7668 250.287C32.9619 240.186 41.7064 232.457 51.431 228.904C61.1556 225.352 71.7928 225.343 82.1301 225.949C83.1559 226.01 84.228 226.09 85.1028 226.627C85.9776 227.165 86.5666 228.315 86.1304 229.244C82.0639 237.903 79.0009 247.031 77.0212 256.388C76.7001 257.905 75.128 258.912 73.5795 259.039C72.031 259.165 70.514 258.594 69.109 257.933C64.7295 255.871 60.8323 252.848 56.3368 251.054Z" fill="white"/>
<path fill-rule="evenodd" clip-rule="evenodd" d="M290.654 98.5616C291.033 92.7672 290.596 86.9196 289.361 81.2458L289.334 81.1245C289.124 80.165 288.909 79.1782 289.102 78.218C289.529 76.0948 291.888 74.8166 294.054 74.8611C296.219 74.9057 298.225 75.9395 300.142 76.9491C309.332 81.7908 318.689 86.7544 325.925 94.2075C326.152 100.241 324.73 106.195 323.327 112.073L323.195 112.626C317.334 137.194 312.536 162.015 308.816 186.997C308.459 189.391 307.784 192.216 305.513 193.054C303.884 193.656 301.989 192.887 300.832 191.592C299.674 190.298 299.121 188.579 298.735 186.886C297.783 182.708 297.669 178.341 298.4 174.119C298.848 171.538 299.604 169.027 300.36 166.515L300.361 166.514V166.513V166.513C301.04 164.258 301.72 162.003 302.176 159.696C302.632 157.388 302.862 155.043 303.085 152.701C304.271 140.249 305.277 127.78 306.103 115.299C306.219 113.536 306.326 111.716 305.748 110.046C304.72 107.075 301.727 105.197 298.704 104.336C298.182 104.188 297.653 104.062 297.124 103.935C295.892 103.642 294.661 103.348 293.537 102.775C291.93 101.957 290.537 100.361 290.654 98.5616ZM296.27 98.0853C300.544 98.9873 304.72 100.349 308.704 102.14C309.507 102.501 310.351 102.923 310.784 103.688C311.138 104.313 311.158 105.066 311.169 105.784C311.294 114.219 311.321 122.678 310.427 131.067C309.892 136.091 309.029 141.07 308.167 146.049C307.893 147.625 307.62 149.201 307.358 150.778C306.058 158.584 305.012 166.431 304.222 174.304C303.648 180.017 303.228 185.921 305.005 191.381C305.917 191.214 306.267 190.116 306.44 189.206L322.862 102.65C323.26 100.553 323.657 98.3841 323.189 96.3017C322.368 92.6559 319.131 90.1206 316.011 88.0635C310.005 84.104 303.612 80.7317 296.953 78.0102C296.398 84.6856 296.171 91.3876 296.27 98.0853ZM304.715 154.931C307.721 139.496 309.08 123.739 308.759 108.016C308.735 106.828 308.671 105.552 307.945 104.612C307.413 103.924 306.6 103.52 305.805 103.165C302.822 101.828 299.686 100.834 296.478 100.207C295.55 100.026 294.184 100.223 294.225 101.168L305.756 105.932C306.432 106.212 307.153 106.528 307.534 107.152C307.909 107.764 307.873 108.533 307.824 109.249L304.715 154.931ZM293.985 76.4833C293.034 75.8529 291.661 76.5025 291.131 77.5127C290.602 78.523 290.683 79.7319 290.803 80.8659C290.978 82.5301 291.21 84.195 291.442 85.8604C292.085 90.48 292.729 95.1014 292.182 99.7117C293.054 100.011 294.028 99.3962 294.45 98.5771C294.873 97.758 294.885 96.796 294.886 95.8735L294.916 79.2487C294.917 78.2329 294.831 77.0444 293.985 76.4833ZM302.523 191.006C301.999 186.897 301.862 182.74 302.114 178.606C302.248 176.395 302.493 174.192 302.739 171.99C303.063 169.077 303.387 166.166 303.455 163.238C301.06 170.366 300.156 177.99 300.817 185.481C300.989 187.429 301.308 189.473 302.523 191.006ZM303.84 159.027C304.226 158.854 304.388 158.313 304.16 157.957C303.769 158.15 303.603 158.697 303.821 159.075L303.84 159.027ZM300.26 123.327C281.201 111.574 259.651 104.532 238.1 98.4552C231.21 96.5126 224.263 94.651 217.15 93.8542C196.073 91.4934 174.706 98.7652 157.18 110.71C150.151 115.501 143.369 121.393 140.333 129.338C138.08 135.234 138.095 141.724 138.312 148.031C139.062 169.784 141.853 191.41 144.641 212.997C146.821 212.604 147.036 209.589 146.721 207.397C143.822 187.265 142.196 166.95 141.857 146.614C141.762 140.912 141.792 135.065 143.765 129.714C147.338 120.028 156.552 113.693 165.593 108.707C176.98 102.428 189.358 97.1492 202.359 96.869C218.107 96.5299 233.034 103.515 246.791 111.187C254.46 115.464 262.236 120.241 267.116 127.542C271.546 134.172 273.156 142.252 274.318 150.141C278.007 175.177 278.143 200.585 278.271 225.893C278.276 226.916 278.213 228.089 277.412 228.726C276.863 229.161 276.114 229.215 275.415 229.252L249.723 230.589C261.695 234.031 274.976 232.674 286.004 226.881L314.551 211.883C317.215 210.483 319.965 209.013 321.802 206.629C324.329 203.348 324.691 198.933 324.81 194.793C325.251 179.501 323.722 164.155 320.273 149.251C321.469 165.373 321.634 181.572 320.769 197.715C320.622 200.472 320.4 203.364 318.901 205.683C317.3 208.159 314.516 209.561 311.864 210.85L281.056 225.824C282.331 201.886 281.342 177.829 278.106 154.077C277.018 146.088 275.63 137.987 271.974 130.802C263.334 113.819 244.211 105.418 226.537 98.3006C252.961 106.031 279.686 113.889 303.458 127.777C303.767 125.858 301.914 124.348 300.26 123.327ZM398.719 196.398C400.088 199.928 402.014 203.691 405.554 205.037C406.392 205.102 406.892 203.989 406.618 203.195C406.388 202.531 405.847 202.048 405.317 201.573C405.278 201.538 405.239 201.504 405.201 201.469L405.142 201.416L405.095 201.374L405.066 201.348C405.046 201.329 405.026 201.31 405.006 201.292C402.753 199.199 401.648 196.241 400.558 193.328L400.558 193.325C400.342 192.75 400.128 192.176 399.906 191.611C398.556 188.185 396.441 184.606 392.903 183.582C390.723 182.951 388.391 183.422 386.191 183.977C373.763 187.113 362.017 192.925 351.985 200.904C347.621 204.375 343.206 209.295 344.246 214.773C344.64 216.842 345.787 218.679 346.944 220.438C349.145 223.786 351.465 227.057 353.896 230.242C354.959 231.636 356.078 233.044 357.58 233.946C360.123 235.475 363.32 235.309 366.247 234.825C381.375 232.324 394.322 222.923 406.642 213.796C407.283 213.321 407.95 212.815 408.282 212.089C408.615 211.364 408.473 210.354 407.768 209.98C406.961 209.55 406.008 210.143 405.288 210.707C393.822 219.683 381.576 228.454 367.361 231.608C364.666 232.205 361.696 232.557 359.271 231.238C357.457 230.251 356.232 228.476 355.075 226.765L347.904 216.154C347.301 215.261 346.674 214.3 346.652 213.222C346.629 212.143 347.501 210.976 348.571 211.116C358.623 212.423 368.722 213.363 378.843 213.932C379.649 213.978 380.491 214.014 381.225 213.679C382.171 213.247 382.748 212.29 383.252 211.382C387.536 203.658 390.809 195.373 392.961 186.806C395.82 188.857 397.155 192.33 398.428 195.645L398.429 195.647C398.525 195.898 398.622 196.149 398.719 196.398ZM389.871 186.128C387.956 193.293 385.123 200.212 381.463 206.661C380.85 207.743 380.168 208.856 379.096 209.484C377.731 210.284 376.033 210.133 374.461 209.958L349.421 207.164C353.576 201.674 359.747 198.111 365.913 195.05C371.75 192.152 377.742 189.567 383.855 187.31C385.79 186.595 387.82 185.903 389.871 186.128ZM251.513 338.959C252.131 344.785 252.782 350.734 255.258 356.044L251.206 319.973C251.038 318.488 251.088 316.598 252.454 315.993C253.61 329.57 255.333 343.098 257.617 356.531C257.888 358.126 255.493 359.037 254.148 358.139C252.802 357.24 252.372 355.491 252.066 353.903C249.837 342.328 248.611 330.559 248.407 318.773C245.569 319.332 243.579 322.083 243.004 324.919C242.43 327.754 242.984 330.682 243.537 333.521L248.877 360.94C249.71 365.215 250.542 369.632 249.623 373.889C246.09 357.76 243.25 341.48 241.113 325.107C214.007 341.683 179.08 344.765 149.49 333.193C143.027 330.666 136.609 327.317 132.34 321.846C128.978 317.536 127.184 312.185 126.244 306.8C122.906 287.675 129.747 268.167 139.032 251.118C139.274 250.674 139.518 250.228 139.763 249.782C143.086 243.721 146.549 237.406 146.284 230.55C146.266 230.098 146.234 229.635 146.202 229.171C146.055 227.036 145.904 224.842 147.119 223.151C148.749 226.116 149.37 229.625 148.856 232.97C176.918 231.762 205.022 231.519 233.101 232.241C233.429 233.532 231.559 234.131 230.227 234.111C204.023 233.721 177.807 234.167 151.632 235.45C150.803 235.49 149.933 235.544 149.23 235.986C148.491 236.45 148.06 237.265 147.662 238.042C140.234 252.577 132.78 267.325 129.19 283.249C127.343 291.438 126.636 300.4 130.421 307.893C131.856 310.736 133.887 313.246 136.154 315.483C148.326 327.489 166.553 331.169 183.646 330.882C194.557 330.698 205.443 329.13 215.961 326.227C227.112 323.148 238.233 318.296 245.844 309.584C250.313 304.469 253.351 298.273 256.011 292.023C261.091 280.088 264.988 267.65 267.625 254.95C269.276 255.298 269.3 257.633 268.919 259.276C264.204 279.616 258.724 301.296 243.195 315.251C229.17 327.856 209.407 331.766 190.579 332.82C179.704 333.429 168.657 333.238 158.123 330.466C147.589 327.693 137.532 322.148 130.844 313.55C132.795 320.987 139.401 326.294 146.28 329.728C164.34 338.747 185.666 338.27 205.608 335.135C218.891 333.047 232.526 329.62 242.864 321.021C251.701 313.67 257.332 303.173 261.571 292.488C266.263 280.662 269.518 268.266 271.241 255.661C272.314 254.983 273.109 256.879 272.974 258.141C270.65 279.746 262.372 300.679 249.293 318.03L251.513 338.959ZM238.953 375.902C237.801 373.957 237.059 371.769 236.791 369.523L235.134 375.134L230.957 359.199C230.632 357.963 229.844 356.416 228.593 356.682C227.378 356.94 227.242 358.608 227.423 359.837C228.333 366.019 230.069 372.078 232.571 377.804L228.127 373.905C227.911 375.761 228.4 377.691 229.473 379.22C227.159 377.516 224.054 376.935 221.28 377.687C223.262 380.442 225.953 382.681 229.023 384.13L225.268 378.889C228.303 380.641 231.482 382.142 234.764 383.372L231.583 379.383L235.513 380.473C232.505 373.63 229.441 366.527 229.514 359.053C230.653 365.133 232.319 371.114 234.489 376.907C234.857 377.888 235.265 378.903 236.048 379.6C236.832 380.296 238.105 380.559 238.925 379.906C239.563 379.4 239.75 378.525 239.894 377.723L241.664 367.905L243.609 380.081C245.083 376.357 249.878 375.424 253.883 375.399C259.172 375.365 264.5 375.948 269.814 376.53H269.815H269.816C279.396 377.577 288.932 378.62 298.112 376.043C297.842 377.462 297.37 378.843 296.715 380.13C304.123 379.052 311.617 378.579 319.101 378.717C322.262 378.776 325.432 378.942 328.602 379.108H328.603H328.603H328.604C336.985 379.548 345.366 379.988 353.577 378.432L299.079 377.953C300.102 377.893 300.887 376.703 300.538 375.739C300.189 374.775 298.825 374.363 298 374.971C297.464 373.268 295.055 372.51 293.64 373.6C294.46 371.071 296.082 368.809 298.214 367.221C295.808 367.091 293.364 367.828 291.43 369.266L297.292 342.136C296.796 341.71 295.97 341.996 295.604 342.538C295.241 343.074 295.201 343.757 295.162 344.403L295.161 344.423C294.612 353.687 291.346 362.774 285.871 370.266L283.72 364.046L280.639 371.476C279.242 370.394 277.261 370.121 275.624 370.785C276.042 372.374 277.313 373.711 278.879 374.208L279.608 372.254L284.422 375.479C282.582 373.551 282.183 370.396 283.486 368.071L286.399 372.958L292.046 361.789C292.078 366.274 290.156 370.512 288.272 374.581C290.319 372.977 292.079 371.008 293.443 368.794C294.76 371.126 293.322 374.252 291.032 375.64C288.742 377.028 285.91 377.103 283.234 376.99C279.153 376.817 275.04 376.305 270.932 375.793C261.706 374.643 252.506 373.496 243.743 376.212L242.479 364.56C240.549 368.048 239.341 371.934 238.953 375.902ZM293.937 376.214C293.739 375.977 293.74 375.597 293.94 375.362L294.099 375.422C294.366 374.781 295.492 374.834 295.699 375.497C295.18 375.871 294.57 376.119 293.937 376.214ZM323.711 252.417C317.364 249.209 309.811 250.075 302.765 251.041C300.774 251.314 298.744 251.6 296.941 252.487C295.138 253.373 293.567 254.979 293.256 256.963C276.049 254.815 259.56 247.241 246.718 235.588C243.931 233.059 241.087 229.457 242.341 225.908C242.735 224.793 243.501 223.852 244.299 222.977C250.286 216.413 258.54 212.466 266.576 208.676C257.468 209.475 248.73 213.905 242.702 220.778C241.32 222.354 240.047 224.114 239.571 226.154C238.397 231.193 242.31 235.919 246.226 239.3C258.723 250.085 274.441 257.089 290.817 259.169C291.799 259.294 291.85 260.675 291.76 261.66C291.361 266.045 293.752 270.325 297.065 273.225C300.378 276.126 304.528 277.867 308.645 279.427C321.397 284.257 334.631 287.814 348.086 290.029C348.975 290.176 350.196 290.106 350.383 289.225C347.278 287.171 343.542 286.388 339.887 285.623L339.873 285.62L339.833 285.612L339.518 285.546L339.296 285.499C330.031 283.549 320.89 281.008 311.948 277.899C308.279 276.623 304.601 275.23 301.403 273.027C298.204 270.823 295.487 267.711 294.465 263.964C293.959 262.114 294.645 259.351 296.549 259.584C304.301 260.532 312.266 261.468 319.835 259.545C321.548 259.111 323.334 258.454 324.378 257.028C325.422 255.602 325.288 253.215 323.711 252.417ZM304.157 257.54C301.496 257.082 298.778 256.959 296.086 257.176C297.394 254.692 300.589 254.038 303.37 253.659C309.416 252.836 315.713 252.033 321.505 253.95C321.888 254.076 322.296 254.238 322.503 254.584C322.776 255.039 322.577 255.659 322.189 256.022C321.802 256.385 321.274 256.549 320.763 256.692C315.382 258.196 309.665 258.488 304.157 257.54ZM216.101 382.867C220.554 382.742 225.035 383.727 229.026 385.707C227.959 387.24 225.815 387.455 223.948 387.526L175.166 389.377C174.72 389.322 174.636 388.632 174.952 388.311C175.269 387.991 175.764 387.95 176.214 387.927L223.834 385.605C221.083 385.353 218.398 384.402 216.101 382.867ZM122.222 221.535C121.527 224.86 124.34 228.407 127.727 228.658C122.188 237.006 112.211 241.125 102.624 244.033C96.6409 245.848 90.0039 247.338 84.3004 244.777C83.5926 245.21 84.3474 246.275 85.0948 246.635C90.6454 249.31 97.2262 247.819 103.13 246.057C111.789 243.473 120.714 240.134 126.606 233.282C126.847 233.002 127.087 232.713 127.329 232.423V232.423C128.846 230.6 130.427 228.699 132.707 228.277C140.047 226.92 146.161 222.323 152.202 217.779H152.203V217.779H152.203C153.573 216.749 154.939 215.721 156.315 214.735C164.679 208.741 173.956 204.021 183.726 200.791C184.589 200.506 185.639 199.977 185.562 199.071C173.448 200.183 162.86 207.407 153.097 214.663L152.771 214.905C146.135 219.838 139.202 224.993 131.038 226.215C133.704 224.112 133.141 219.252 130.132 217.676C127.123 216.1 122.918 218.211 122.222 221.535ZM124.483 223.567C123.938 221.954 124.779 220.036 126.272 219.219C126.696 218.987 127.17 218.832 127.653 218.832C129.248 218.83 130.413 220.536 130.423 222.131C130.434 223.726 129.626 225.197 128.84 226.585C127.002 226.303 125.077 225.328 124.483 223.567ZM305.747 188.029C305.296 187.527 305.434 186.85 305.578 186.148C305.679 185.653 305.784 185.145 305.683 184.678C305.597 184.273 305.36 183.928 305.124 183.583C304.914 183.276 304.704 182.969 304.596 182.619C304.621 182.156 305.24 181.919 305.661 182.111C306.083 182.303 306.319 182.756 306.467 183.195C307.004 184.799 306.728 186.652 305.747 188.029ZM264.911 152.843C266.039 150.167 268.277 147.795 271.13 147.251C272.053 147.076 272.025 145.553 271.216 145.075C270.407 144.596 269.368 144.879 268.519 145.283C264.566 147.165 262.071 151.306 261.093 155.573C260.115 159.841 260.438 164.284 260.767 168.65L262.515 191.854C262.574 192.643 262.646 193.471 263.086 194.13C263.981 195.47 265.899 195.512 267.508 195.41L275.648 194.892C273.839 193.474 271.411 192.878 269.151 193.295C267.831 193.539 266.505 192.668 265.805 191.522C265.106 190.377 264.901 189.006 264.728 187.675C263.593 178.967 263.177 170.164 263.485 161.388C263.586 158.485 263.782 155.519 264.911 152.843ZM285.696 358.809C285.233 359.145 284.77 358.381 284.703 357.813C281.557 331.37 281.082 304.69 280.611 278.065L280.294 260.115C280.285 259.604 280.292 259.044 280.621 258.652C281.187 257.977 282.376 258.287 282.87 259.015C283.364 259.743 283.365 260.687 283.349 261.567C282.865 287.768 283.183 314.02 285.691 340.106C285.722 340.423 285.752 340.741 285.783 341.059C286.358 346.984 286.942 352.999 285.696 358.809ZM259.542 192.126C258.853 191.747 258.003 191.961 257.249 192.184C222.373 202.499 187.577 213.135 153.294 225.274C152.653 225.502 151.918 225.829 151.771 226.494C151.615 227.197 152.278 227.87 152.987 228C153.696 228.131 154.413 227.877 155.09 227.628C189.447 214.99 224.322 203.756 259.597 193.966C260.354 193.756 260.231 192.504 259.542 192.126Z" fill="#00160A"/>
<path fill-rule="evenodd" clip-rule="evenodd" d="M383.8 349.91C382.987 350.267 382.108 350.598 381.234 350.448C380.361 350.298 379.543 349.477 379.718 348.608C381.323 340.66 379.308 332.053 374.341 325.644C372.601 323.398 370.528 321.422 368.832 319.141C367.763 317.705 366.812 315.898 367.354 314.191C368.126 311.763 371.232 311.172 373.774 310.999C379.684 310.596 385.594 310.193 391.503 309.791C394.226 309.605 397.363 309.577 399.18 311.613C404.24 317.281 414.103 317.661 419.584 312.401C420.433 311.587 421.501 313.207 421.467 314.382C421.361 318.078 419.838 321.715 417.279 324.383C416.676 325.012 415.904 325.629 415.036 325.539C414.169 325.448 413.529 324.203 414.221 323.672C415.704 322.532 417.216 321.363 418.256 319.808C419.297 318.253 419.801 316.214 419.092 314.483C415.274 319.312 411.42 324.113 407.53 328.884C400.785 337.156 393.572 345.618 383.8 349.91ZM394.459 325.568C393.488 325.836 392.452 325.63 391.484 325.356C384.508 323.385 378.082 317.935 370.947 319.21C379.267 325.911 383.684 337.146 382.156 347.718C387.637 346.544 391.966 342.452 395.848 338.408C401.595 332.423 407.051 326.159 412.192 319.645C408.497 319.615 404.816 318.549 401.677 316.601C397.798 317.56 398.31 324.502 394.459 325.568ZM399.524 314.563C397.214 311.839 393.062 311.923 389.503 312.236C384.862 312.643 380.221 313.051 375.579 313.459C373.695 313.624 371.531 313.955 370.548 315.571C378.582 317.253 386.413 319.895 393.824 323.421C394.777 320.427 396.687 317.747 399.206 315.868C399.489 315.657 399.813 315.386 399.776 315.034C399.756 314.855 399.642 314.701 399.524 314.563Z" fill="#FFB61D"/>
<path fill-rule="evenodd" clip-rule="evenodd" d="M55.4365 249.606C48.446 246.81 40.1155 247.639 33.8131 251.758C33.2029 252.157 32.3257 251.713 32.0237 251.049C31.7217 250.386 31.8346 249.614 31.9891 248.902C34.002 239.622 42.0206 232.521 50.938 229.258C59.8553 225.995 69.6091 225.986 79.089 226.544C80.0293 226.599 81.0124 226.673 81.8148 227.167C82.6172 227.661 83.1567 228.717 82.757 229.57C79.0277 237.525 76.219 245.911 74.4038 254.506C74.1093 255.9 72.6678 256.825 71.248 256.942C69.8281 257.058 68.4368 256.533 67.1481 255.925C63.1323 254.032 59.5588 251.255 55.4365 249.606ZM56.2355 240.216C55.6125 240.723 54.6388 240.455 54.0526 239.907C53.4663 239.358 53.1323 238.599 52.6715 237.942C50.1998 234.416 44.5279 234.709 41.1658 237.399C37.8037 240.089 36.1768 244.34 34.6954 248.383C44.5588 244.099 56.7074 245.636 65.1925 252.243C66.3512 253.145 67.5007 254.161 68.9274 254.508C70.354 254.855 72.1512 254.231 72.5125 252.808C74.4428 245.205 76.8215 237.717 79.6321 230.395C74.2392 237.098 62.9133 234.791 56.2355 240.216ZM54.0893 236.165C54.6431 236.861 55.6488 237.046 56.5243 236.889C57.3997 236.732 58.195 236.295 59.0107 235.941C61.8191 234.72 64.9295 234.448 67.9406 233.89C70.9516 233.331 74.0567 232.387 76.1763 230.177C71.394 230.163 66.6117 230.148 61.8297 230.133C57.0238 230.119 51.8448 230.221 47.9839 233.083C50.3343 233.169 52.6246 234.325 54.0893 236.165Z" fill="#FFB61D"/>
<path fill-rule="evenodd" clip-rule="evenodd" d="M280.024 248.965C280.013 244.759 280.002 240.552 279.99 236.346C279.987 235.138 279.984 233.93 279.981 232.721C279.978 231.889 280.118 230.846 280.91 230.587C281.509 230.391 282.167 230.821 282.447 231.386C282.727 231.95 282.724 232.608 282.714 233.238C282.627 239.108 282.54 244.978 282.453 250.848C282.44 251.693 282.299 252.732 281.508 253.028C280.19 252.281 280.028 250.48 280.024 248.965Z" fill="#00160A"/>
<path fill-rule="evenodd" clip-rule="evenodd" d="M271.629 245.072C271.02 245.338 270.706 244.336 270.8 243.677C271.136 241.322 271.474 238.961 272.047 236.652C272.404 235.214 272.918 233.701 274.105 232.816C275.293 231.93 277.332 232.085 277.913 233.448C278.195 234.108 278.077 234.862 277.948 235.568C277.148 239.937 276.072 244.257 274.726 248.491C274.669 248.67 274.607 248.857 274.471 248.988C274.14 249.305 273.542 249.092 273.313 248.695C273.084 248.297 273.113 247.808 273.15 247.351C273.697 247.311 273.952 246.667 274.083 246.135C274.619 243.961 275.156 241.788 275.691 239.614C276.109 237.922 276.49 235.996 275.518 234.55C274.521 235.164 274.146 236.406 273.85 237.54C273.252 239.819 272.655 242.099 272.058 244.378C271.986 244.651 271.887 244.959 271.629 245.072Z" fill="#00160A"/>
</svg>
